<?xml version="1.0" encoding="utf-8"?>
<!-- Generator: Adobe Illustrator 23.0.3, SVG Export Plug-In . SVG Version: 6.00 Build 0)  -->
<svg version="1.1" id="Layer_1" xmlns="http://www.w3.org/2000/svg" xmlns:xlink="http://www.w3.org/1999/xlink" x="0px" y="0px"
	 viewBox="0 0 972.3 1139.5" style="enable-background:new 0 0 972.3 1139.5;" xml:space="preserve">
<style type="text/css">
	.st0{fill:#F2F2F2;}
	.st1{fill:none;stroke:#3F3D56;stroke-width:2;stroke-miterlimit:10;}
	.st2{fill:#3F3D56;}
	.st3{fill:#FF6347;}
	.st4{fill:#2F2E41;}
	.st5{opacity:0.1;enable-background:new    ;}
	.st6{fill:#9F616A;}
	.st7{fill:#A0616A;}
</style>
<path class="st0" d="M719.8,797.5L527.1,556.8c-8.7,8-19.5,13.4-31.2,15.7c-36.3,7.1-71.7-17.6-79.1-55.3
	c-5.2-26.6,4.9-52.6,24.1-68.1L375.3,367L1,686.9l344.5,430.5L719.8,797.5z"/>
<line class="st1" x1="83.2" y1="1119.6" x2="971.2" y2="1119.6"/>
<circle class="st1" cx="620.4" cy="423.9" r="14.8"/>
<circle class="st1" cx="815.4" cy="852.9" r="14.8"/>
<circle class="st1" cx="171.7" cy="460.9" r="14.8"/>
<ellipse transform="matrix(0.3162 -0.9487 0.9487 0.3162 -152.2109 802.2212)" class="st0" cx="480.4" cy="506.7" rx="54.3" ry="54.3"/>
<path class="st2" d="M157.9,476.4h240.6c23.9,0,44.6,16.6,49.9,39.9L570,1055.5c5,22.3-9,44.4-31.2,49.4c-2.3,0.5-4.7,0.8-7.1,1
	l-247.4,12.2c-27.4,1.3-51.5-17.8-56.4-44.8l-69-381.3l-5.1,1.5l-13.2-72.3l5.3-1.3l-19.3-106.4c-3.1-17.1,8.3-33.5,25.4-36.6
	C154,476.5,155.9,476.4,157.9,476.4z"/>
<path class="st3" d="M366.8,488h28.1c16.6,0,31,11.6,34.5,27.8l116.7,534.9c2.6,11.8-4.9,23.5-16.7,26.1c-1.1,0.2-2.1,0.4-3.2,0.5
	l-246.6,16.2c-14.4,0.9-27.2-9.1-29.8-23.3l-99.6-552.8c-2.4-13.5,6.5-26.4,20-28.9c1.5-0.3,2.9-0.4,4.4-0.4h26.6
	c5.3,0,9.9,3.6,11.3,8.7l0,0c1.2,4.5,5.3,7.7,10,7.7H349C358.4,504.3,366.1,497.2,366.8,488L366.8,488z"/>
<rect x="190.2" y="626.3" class="st4" width="255.1" height="1.3"/>
<rect x="197.8" y="667.1" class="st4" width="257.6" height="1.3"/>
<rect x="216.6" y="809.4" transform="matrix(0.9998 -2.117069e-02 2.117069e-02 0.9998 -17.0713 7.5946)" class="st4" width="267.1" height="1.3"/>
<rect x="219.7" y="846.8" transform="matrix(0.9997 -2.309002e-02 2.309002e-02 0.9997 -19.4721 8.4411)" class="st4" width="272.2" height="1.3"/>
<path class="st5" d="M325,950.8c0,33,26.7,59.7,59.7,59.7s59.7-26.7,59.7-59.7c0-0.7,0-1.5,0-2.2c-1.2-32.9-28.9-58.7-61.9-57.4
	C350.4,892.4,325,918.7,325,950.8L325,950.8z"/>
<path class="st5" d="M330.7,974.1c0,0.7,0,1.5,0,2.2c14.1,29.8,49.7,42.6,79.5,28.5c20.9-9.9,34.2-30.9,34.2-54c0-0.7,0-1.5,0-2.2
	c-14.1-29.8-49.7-42.6-79.5-28.5C344,929.9,330.7,951,330.7,974.1L330.7,974.1z"/>
<circle class="st4" cx="694" cy="601.9" r="36.8"/>
<polygon class="st6" points="733.7,1063.1 740.7,1093.1 723.7,1093.1 716.7,1059.1 "/>
<polygon class="st6" points="651.7,1063.1 651.7,1091.1 634.7,1093.1 634.7,1063.1 "/>
<path class="st6" d="M738.7,745.1c0,0-2,43-4,46s-20,46-20,46l-9-28c0,0,14-23,12-36s-0.7-29-0.7-29L738.7,745.1z"/>
<circle class="st6" cx="681.7" cy="613.1" r="28"/>
<path class="st6" d="M704.7,616.1c0,0-1,40,6,46s-40,1-40,1s10-28,2-34S704.7,616.1,704.7,616.1z"/>
<path class="st4" d="M667.7,661.1c0,0,6-11,14-10s34,3,35,5s4,9,6,11s17,5,18,17s-36,85-36,85s5,17,4,21s5,16,4,21s15,35,7,74v63
	c0,0,27,109,19,117s-35,3-40,0s-26-154-26-154l-10-51l-1,112c0,0,2,94-5,97s-34,4-36-2c-1.6-4.7-9.2-129.2-12.5-183.8
	c-1.1-18.8,0.3-37.7,4.4-56.2c4.2-18.9,10.2-41.1,17.1-50.1c13-17,21-71,21-71l-17-31c0,0,10-10,16-10S667.7,661.1,667.7,661.1z"/>
<path class="st4" d="M734.7,677.1l5.3,3.6c0,0,3.7,64.4,0.7,68.4s-23.9,2-25.4-1.5S734.7,677.1,734.7,677.1z"/>
<path class="st6" d="M645.5,735.6c2.9,20.3,5.5,38.4-9.5,54.7c-15,16.6-32,31.2-50.5,43.8c-1.8,4.9-28.8,40.6-30.2,26.3
	s7.9-25.4,21.2-37.5s31.7-38.2,42.2-52.5s6.1-23.3,5.8-35.3S641.4,735.8,645.5,735.6z"/>
<path class="st4" d="M634.7,1074.9c0,0-1,11.2-4,14.2s-11,7-10,18s7.5,11.5,7.5,11.5l-0.5-2.5l3,1l0.5,1.5h28c0,0,0.5-10.5-0.5-15.5
	s-1-29-4-28s-11,2-13,6S633.7,1083.7,634.7,1074.9z"/>
<path class="st4" d="M736.7,1074.9c0,0,1,11.2,4,14.2s11,7,10,18s-7.5,11.5-7.5,11.5l0.5-2.5l-3,1l-0.5,1.5h-28
	c0,0-0.5-10.5,0.5-15.5s1-29,4-28s11,2,13,6S737.7,1083.7,736.7,1074.9z"/>
<path class="st4" d="M647.7,672.1l-14,3c0,0,0,22-4,31s-11,30-8,31s31,15,33,7S661.7,672.1,647.7,672.1z"/>
<circle class="st4" cx="733.8" cy="553.5" r="36.8"/>
<path class="st4" d="M765.6,583.9c-16.5,11.9-39.5,8.2-51.4-8.3c-2.4-3.4-4.3-7.1-5.4-11.1c2.5,20.2,20.9,34.5,41.1,31.9
	c20.2-2.5,34.5-20.9,31.9-41.1c-0.3-2-0.7-4-1.2-5.9C782.2,562.9,776.5,576.1,765.6,583.9z"/>
<circle class="st4" cx="703.8" cy="608" r="27"/>
<ellipse class="st4" cx="681.1" cy="597.9" rx="23.9" ry="18.7"/>
<ellipse class="st7" cx="674.7" cy="617.1" rx="4.5" ry="8"/>
</svg>
