<?xml version="1.0" encoding="utf-8"?>
<!-- Generator: Adobe Illustrator 23.0.3, SVG Export Plug-In . SVG Version: 6.00 Build 0)  -->
<svg version="1.1" id="Layer_1" xmlns="http://www.w3.org/2000/svg" xmlns:xlink="http://www.w3.org/1999/xlink" x="0px" y="0px"
	 viewBox="0 0 850.4 1156.5" style="enable-background:new 0 0 850.4 1156.5;" xml:space="preserve">
<style type="text/css">
	.st0{fill:#3F3D56;}
	.st1{opacity:0.2;enable-background:new    ;}
	.st2{fill:#575A89;}
	.st3{fill:#3ACC6C;}
	.st4{fill:#2F2E41;}
	.st5{fill:#FBBEBE;}
</style>
<path class="st0" d="M579,541.2h-3.9V434c0-34.3-27.8-62-62-62l0,0H286c-34.3,0-62,27.8-62,62l0,0v588c0,34.3,27.8,62,62,62l0,0
	h227.1c34.3,0,62-27.8,62-62l0,0V617.5h3.9V541.2z"/>
<rect x="60.2" y="1054.9" class="st0" width="718" height="2"/>
<path class="st1" d="M561.9,434.5v587.2c0,25.6-20.7,46.3-46.2,46.3h-0.1H287.4c-25.6,0-46.3-20.7-46.3-46.3c0,0,0,0,0-0.1V434.5
	c0-25.6,20.7-46.3,46.3-46.3c0,0,0,0,0.1,0h27.7c-4.6,11.3,0.8,24.1,12.1,28.7c2.6,1.1,5.5,1.6,8.3,1.6h130.1c12.2,0,22-9.9,22-22
	c0-2.9-0.6-5.7-1.6-8.3h29.6C541.2,388.1,561.9,408.8,561.9,434.5C561.9,434.4,561.9,434.4,561.9,434.5L561.9,434.5z"/>
<path class="st0" d="M131.6,1056.8l-1.1-0.4c-0.2-0.1-23.7-9.1-34.7-29.5c-11-20.4-5.6-44.9-5.6-45.2l0.3-1.1l1.1,0.4
	c0.2,0.1,23.7,9.1,34.7,29.5c11,20.4,5.6,44.9,5.6,45.2L131.6,1056.8z M97.5,1025.9c9.3,17.2,27.8,26.1,32.5,28.1
	c0.9-5,3.7-25.4-5.6-42.6s-27.8-26.1-32.5-28.1C91.1,988.3,88.3,1008.7,97.5,1025.9z"/>
<path class="st2" d="M104.2,1019.7c19.8,11.9,27.4,35.5,27.4,35.5s-24.4,4.3-44.2-7.5c-19.8-11.9-27.4-35.5-27.4-35.5
	S84.4,1007.8,104.2,1019.7z"/>
<path class="st0" d="M298.6,388.1V1068h-11.2c-2.9,0-5.9-0.3-8.8-0.8V389c2.9-0.6,5.8-0.8,8.8-0.8L298.6,388.1z"/>
<rect x="386.6" y="418.5" class="st0" width="20" height="649.5"/>
<path class="st0" d="M531.6,391v674.1c-5.1,1.9-10.6,2.9-16.1,2.9h-3.9V388.1h3.9C521.1,388.1,526.5,389.1,531.6,391z"/>
<rect x="241.1" y="501.3" class="st0" width="320.8" height="20"/>
<rect x="241.1" y="728.3" class="st0" width="320.8" height="20"/>
<rect x="390.6" y="840.3" class="st0" width="161" height="20"/>
<rect x="386.6" y="586.3" class="st0" width="175.3" height="20"/>
<polygon class="st0" points="401.1,520 398.8,521.3 386.6,528.3 298.6,579.2 278.6,590.7 241.1,612.4 241.1,589.3 278.6,567.6 
	298.6,556.1 358.8,521.3 386.6,505.3 391.1,502.7 "/>
<rect x="241.1" y="947.3" class="st0" width="320.8" height="20"/>
<path class="st3" d="M631.6,587.3c0,63.5-115,205-115,205s-115-141.5-115-205s51.5-115,115-115S631.6,523.8,631.6,587.3z"/>
<ellipse transform="matrix(0.7071 -0.7071 0.7071 0.7071 -260.4396 535.8431)" class="st1" cx="516.6" cy="582.3" rx="68" ry="68"/>
<path class="st4" d="M636.5,494.8c0,0-18.1-6.5-29.7,19.4c-11.6,25.8-29.7,54.2-29.7,54.2l10.3,2.6c0,0,2.6-18.1,9-20.6l-2.6,23.2
	c0,0,77.4,27.1,112.3-2.6l-1.3-9c0,0,5.2,1.3,5.2,9l3.9-3.9c0,0-3.9-7.7-15.5-18.1c-7.6-6.8-10.2-19.7-11.1-27.7
	c-0.7-6.7-3.4-13.1-7.7-18.3C671.8,494,657.8,484.5,636.5,494.8z"/>
<path class="st5" d="M746.1,640.8c0,0,34,29,39,46s-19,19-19,19l-52,5c0,0-1,24-10,27s-1.8-39.7-1.8-39.7l50.8-14.3l-23-24
	L746.1,640.8z"/>
<path class="st5" d="M587.1,670.8l-4,53l-22,90c0,0-20,41-3,42s16-39,16-39l32-85l3-58L587.1,670.8z"/>
<polygon class="st5" points="605.1,1054.8 605.1,1093.8 629.1,1087.8 622.1,1051.8 "/>
<polygon class="st5" points="733.1,1054.8 733.1,1093.8 757.1,1087.8 750.1,1051.8 "/>
<circle class="st5" cx="643.1" cy="544.8" r="33"/>
<path class="st5" d="M628.1,560.8c0,0,12,43-7,54s48,19,66-14c0,0-32-11-23-40H628.1z"/>
<path class="st2" d="M605.1,619.8l-6-2c0,0-12,5-12,14s-2,45-2,45l27,3L605.1,619.8z"/>
<path class="st4" d="M609.1,726.8c0,0-33,42.1-33,93.1s8,236,8,236s30,14,48-3l16-210l63,217c0,0,30,6,44-4l-27-140
	c0,0-1-166-31-178S609.1,726.8,609.1,726.8z"/>
<path class="st4" d="M631.1,1081.8c0,0-26-14-28,5s-3,31-3,31s-3,23,25,18s18-19,18-19s-10-16-10-20S631.1,1081.8,631.1,1081.8z"/>
<path class="st4" d="M730.6,1081.4c0,0,23.7-17.7,28.4,0.8s7.5,30.2,7.5,30.2s6.3,22.3-22.1,21.5c-28.4-0.8-20.6-16.2-20.6-16.2
	s7.5-17.3,7-21.3C730.2,1092.6,730.6,1081.4,730.6,1081.4z"/>
<path class="st2" d="M701.1,605.8c0,0,13-7,26,8l26,30l-20,22l-38-23L701.1,605.8z"/>
<path class="st4" d="M607.5,545.1c11.7-8.5,21.1-18.2,27.4-29.8c0,0,21.4,23.8,34.5,25s1.2-28.6,1.2-28.6l-23.8-6l-22.6,2.4
	L606.3,520L607.5,545.1z"/>
<path class="st2" d="M682.1,598.8c0,0-14,22.1-56,11.6l-23.8,6.6l-3.2,0.9c0,0,3,60,11,71s6,17,4,18s-7-1-4,4s7,2,3,5s-6,14-6,14
	l94,12c0,0-3-39,5-59s10-28,10-28l-6-50L682.1,598.8z"/>
</svg>
