<?xml version="1.0" encoding="utf-8"?>
<!-- Generator: Adobe Illustrator 23.0.3, SVG Export Plug-In . SVG Version: 6.00 Build 0)  -->
<svg version="1.1" id="Layer_1" xmlns="http://www.w3.org/2000/svg" xmlns:xlink="http://www.w3.org/1999/xlink" x="0px" y="0px"
	 viewBox="0 0 805 929.8" style="enable-background:new 0 0 805 929.8;" xml:space="preserve">
<style type="text/css">
	.st0{fill:#F0F0F0;}
	.st1{fill:#3F3D56;}
	.st2{fill:#FF6347;}
	.st3{opacity:0.1;enable-background:new    ;}
	.st4{fill:#2F2E41;}
	.st5{fill:#FFB8B8;}
	.st6{fill:#FF6584;}
</style>
<polygon class="st0" points="185.9,719 248.1,621.2 108.8,532.7 36.9,645.8 152.1,719 "/>
<path class="st1" d="M274,749.5H120v-31h154V749.5z M122,747.5h150v-27H122V747.5z"/>
<circle class="st2" cx="255" cy="734" r="10"/>
<circle class="st2" cx="227" cy="734" r="10"/>
<circle class="st2" cx="199" cy="734" r="10"/>
<circle class="st2" cx="171" cy="734" r="10"/>
<circle class="st2" cx="143" cy="734" r="10"/>
<path class="st0" d="M457,405v-76h38v-37H309v186h159v-18.2c0-14.3,11.6-25.8,25.8-25.8l0,0h1.2v-29H457z"/>
<rect x="539" y="772" class="st2" width="124" height="26"/>
<rect x="508" y="644" class="st0" width="182" height="24"/>
<rect x="1" y="907" class="st1" width="778" height="2"/>
<path class="st1" d="M721.2,909H493.8c-14.8,0-26.8-12-26.8-26.8V459.8c0-14.8,12-26.8,26.8-26.8h227.4c14.8,0,26.8,12,26.8,26.8
	v422.4C748,897,736,909,721.2,909z M493.8,435c-13.7,0-24.8,11.1-24.8,24.8v422.4c0,13.7,11.1,24.8,24.8,24.8h227.4
	c13.7,0,24.8-11.1,24.8-24.8V459.8c0-13.7-11.1-24.8-24.8-24.8H493.8z"/>
<path class="st1" d="M580.5,453c-3.3,0-6-2.7-6-6s2.7-6,6-6s6,2.7,6,6S583.8,453,580.5,453z M580.5,443c-2.2,0-4,1.8-4,4s1.8,4,4,4
	s4-1.8,4-4S582.7,443,580.5,443z"/>
<rect x="595.5" y="446" class="st1" width="44" height="2"/>
<path class="st2" d="M730,462v80c-44.2,0-80-35.8-80-80H730z"/>
<path class="st1" d="M731,882H484V461h247V882z M486,880h243V463H486V880z"/>
<circle class="st3" cx="672" cy="510" r="27"/>
<circle class="st2" cx="668" cy="513" r="27"/>
<rect x="495" y="478" class="st1" width="38" height="14"/>
<rect x="516" y="611" class="st1" width="38" height="14"/>
<path class="st1" d="M700,663H516v-26h184V663z M518,661h180v-22H518V661z"/>
<rect x="508" y="720" class="st0" width="182" height="24"/>
<rect x="516" y="687" class="st1" width="38" height="14"/>
<path class="st1" d="M700,739H516v-26h184V739z M518,737h180v-22H518V737z"/>
<path class="st1" d="M671,792H545v-28h126V792z M547,790h122v-24H547V790z"/>
<path class="st2" d="M695,653c0,5.5-4.5,10-10,10c-3,0-5.8-1.3-7.7-3.6l0,0c-3.5-4.3-2.9-10.6,1.4-14.1c4.3-3.5,10.6-2.9,14.1,1.4
	c1,1.2,1.6,2.5,2,4l0,0l0,0C694.9,651.4,695,652.2,695,653z"/>
<path class="st3" d="M695,653c0,5.5-4.5,10-10,10c-3,0-5.8-1.3-7.7-3.6l0,0c-0.2-0.8-0.3-1.6-0.3-2.4c0-5.5,4.5-10,10-10
	c3,0,5.8,1.3,7.7,3.6l0,0l0,0C694.9,651.4,695,652.2,695,653z"/>
<circle class="st2" cx="689" cy="659" r="10"/>
<path class="st2" d="M695,729c0,5.5-4.5,10-10,10c-3,0-5.8-1.3-7.7-3.6l0,0c-3.5-4.3-2.9-10.6,1.4-14.1c4.3-3.5,10.6-2.9,14.1,1.4
	c1,1.2,1.6,2.5,2,4l0,0l0,0C694.9,727.4,695,728.2,695,729z"/>
<path class="st3" d="M695,729c0,5.5-4.5,10-10,10c-3,0-5.8-1.3-7.7-3.6l0,0c-0.2-0.8-0.3-1.6-0.3-2.4c0-5.5,4.5-10,10-10
	c3,0,5.8,1.3,7.7,3.6l0,0l0,0C694.9,727.4,695,728.2,695,729z"/>
<circle class="st2" cx="689" cy="735" r="10"/>
<rect x="469" y="340" class="st0" width="52" height="52"/>
<path class="st1" d="M672,378c-6.6,0-12-5.4-12-12s5.4-12,12-12s12,5.4,12,12S678.6,378,672,378z M672,356c-5.5,0-10,4.5-10,10
	s4.5,10,10,10s10-4.5,10-10S677.5,356,672,356z"/>
<path class="st1" d="M408,545h-26v-26h26V545z M384,543h22v-22h-22V543z"/>
<path class="st1" d="M804,739h-26v-26h26V739z M780,737h22v-22h-22V737z"/>
<path class="st4" d="M291,564.7l4.5,2.4l15.2,8.2l24.5,13.2l14.3-26.5c5.7-10.5,1.8-23.5-8.7-29.2l0,0c-10.9-5.9-24.4-4.1-33.4,4.5
	l0,0c-2.1,2.1-4,4.5-5.4,7.1L291,564.7z"/>
<polygon class="st5" points="357.9,834.9 354.9,867.9 343.7,869.4 336.2,831.9 "/>
<path class="st4" d="M340.7,869.4c0,0,14.2-7.5,17.2-1.5c0,0-2.2,18,6.7,20.2s12.7,18,0,19.5s-21-3-25.5-3s0-15.7,0-15.7
	L340.7,869.4z"/>
<polygon class="st5" points="267.3,834.9 270.3,867.9 281.5,869.4 289,831.9 "/>
<path class="st4" d="M284.5,869.4c0,0-14.2-7.5-17.2-1.5c0,0,2.2,18-6.7,20.2s-12.7,18,0,19.5c12.7,1.5,21-3,25.5-3s0-15.7,0-15.7
	L284.5,869.4z"/>
<circle class="st5" cx="328.7" cy="551.2" r="19.5"/>
<path class="st5" d="M266.6,589.4l15.7,24.7l18.7-1.5l30.7,2.2c0,0,2.9-5.8,5.3-11.4c1.3-2.8,2.3-5.8,3-8.8
	c0.7-5.2-9.7-10.5-9.7-10.5s-0.4-0.1-1.1-0.2c-0.9-0.2-2.3-0.6-3.9-1.1c-3.5-1.2-7.7-3.2-8.5-6.1c-1.5-5.2,9.7-12.7,9.7-12.7
	L313,551.2c0,0-12,16.6-26.5,20.4c-0.8,0.2-1.7,0.4-2.6,0.5h-0.1C268.1,574.4,266.6,589.4,266.6,589.4z"/>
<path class="st5" d="M274.8,582.6l-8.2,6.7c0,0-6.7,32.2-4.5,41.2s-0.7,17.2-0.7,18.7s-6.7,57.6-6.7,57.6s-13.5,29.9,0.7,27
	c14.2-2.9,9-32.9,9-32.9l17.2-52.4v-44.2L274.8,582.6z"/>
<path class="st5" d="M333.9,588.6l6,4.5l3,62.9l22.5,53.9c0,0,16.5,26.2,6,27s-17.2-27-17.2-27L334,658.2l-3-50.2L333.9,588.6z"/>
<path class="st4" d="M296.5,593.1c0,0,15,10.5,38.9,6.7c0,0,6.7,13.5,3,21s4.5,25.5,6,27.7s18.7,48.7,24.7,98.8s22.5,84.6,8.2,89.1
	s-43.4,9.7-46.4,5.2s-7.5-116-7.5-116l-8.2,42.7c0,0,11.2,72.6,3,74.1s-59.9-3-58.4-12s16.5-56.1,16.5-56.1S275.6,680,290.5,662
	c0,0,6-9.7-2.2-22.5s-7.5-32.9-7.5-32.9S286.8,606.6,296.5,593.1z"/>
<polygon class="st4" points="283.9,572.1 296.5,599.9 299.5,598.4 286.5,571.6 "/>
<path class="st4" d="M325.2,582.8l9.5,20.8l2.3-0.2l-0.8-3.5l-7.1-16C328.2,583.7,326.8,583.3,325.2,582.8z"/>
<path class="st4" d="M295.5,567.1c2,6.5,8.9,10.1,15.4,8.1c3.1-1,5.7-3.1,7.2-5.9c-9.5-12.4-1.3-20.2,14-26
	c2.4-4.4,1.8-9.8-1.3-13.7c-8.6-1.1-17.2,1.7-23.5,7.7l0,0l-10.9,20.3C294.8,560.5,294.5,563.9,295.5,567.1z"/>
<ellipse class="st5" cx="317.1" cy="553.5" rx="2.6" ry="4.5"/>
<path class="st4" d="M324.9,546.1l22.5,10.2l4.1-9.1c-0.7-3.3-2.2-6.4-4.3-9.1l-15.5-7L324.9,546.1z"/>
<circle class="st2" cx="379" cy="737" r="10"/>
<circle class="st6" cx="58" cy="799.9" r="6.5"/>
<rect x="89" y="834" class="st1" width="2" height="74.4"/>
<circle class="st1" cx="90" cy="834" r="10.5"/>
<path class="st1" d="M90,879.8c0,0-1.5-32.3-32.3-28.6"/>
</svg>
