<?xml version="1.0" encoding="utf-8"?>
<!-- Generator: Adobe Illustrator 23.0.3, SVG Export Plug-In . SVG Version: 6.00 Build 0)  -->
<svg version="1.1" id="Layer_1" xmlns="http://www.w3.org/2000/svg" xmlns:xlink="http://www.w3.org/1999/xlink" x="0px" y="0px"
	 viewBox="0 0 1009.1 1281.3" style="enable-background:new 0 0 1009.1 1281.3;" xml:space="preserve">
<style type="text/css">
	.st0{opacity:0.1;fill:#FF6347;enable-background:new    ;}
	.st1{fill:#3A3768;}
	.st2{fill:#FF6347;}
	.st3{fill:#E6E8EC;}
	.st4{opacity:0.1;enable-background:new    ;}
	.st5{fill:#FFD037;}
	.st6{fill:#A8A8A8;}
	.st7{opacity:0.2;enable-background:new    ;}
	.st8{fill:url(#SVGID_1_);}
	.st9{fill:url(#SVGID_2_);}
	.st10{fill:#FFBDC6;}
	.st11{fill:#474463;}
	.st12{fill:#F2F1F2;}
	.st13{fill:#FF748E;}
	.st14{opacity:0.1;}
	.st15{fill:#FFFFFF;}
	.st16{fill:#3ACC6C;}
</style>
<path class="st0" d="M261.8,499.9c-36.8-37.5-106.1-40.3-156-17.7c-47.6,21.6-78.4,67.3-76.1,113c3.4,66.5,67.5,117.5,105.7,175.7
	c17.8,27.1,30.4,59.7,18.2,88.9c-22.3,53.1-110.4,65.4-142.3,114.9c-19,29.5-12,69.3,16.4,92.9c22.3,18.5,54.1,26.2,84.9,31
	c55.4,8.7,112,10.4,168.3,12.1c152.2,4.5,304.9,9,456.7-1.4c68.6-4.7,138.9-13,198.6-41.9c29.4-14.3,56.5-34.5,67.9-61.5
	c11.5-27.2,5.4-57.8-7.7-84.5c-13.1-26.7-32.9-50.6-49.9-75.7c-36.3-53.4-59.9-120.9-26.5-175.6c9.6-15.7,23.5-29.5,31.4-46
	c11.3-23.6,8.9-50.2,4.7-75.5c-5.5-33.6-15.7-69.7-47.2-90.7c-32.7-21.8-79.2-20.7-119.8-12.9c-63.2,12.1-121.5,37.4-180.3,60.3
	c-58.9,22.9-120.5,43.8-185.2,46C366.4,553.3,299.8,538.5,261.8,499.9z"/>
<ellipse class="st0" cx="526.6" cy="1220.9" rx="304" ry="41.1"/>
<path class="st1" d="M367.3,732v68.4c0,1.3-1,2.3-2.3,2.3h-4.3c-1.3,0-2.3-1-2.3-2.3V732c0-1.3,1-2.3,2.3-2.3h4.3
	C366.3,729.8,367.3,730.8,367.3,732z"/>
<path class="st1" d="M661.7,674.8v19.5c0,1.3-1,2.3-2.3,2.3H659c-1.3,0-2.3-1-2.3-2.3v-19.5c0-1.3,1-2.3,2.3-2.3h0.4
	C660.7,672.5,661.7,673.6,661.7,674.8z"/>
<path class="st1" d="M661.9,718.9v37.3c0,1.3-1,2.3-2.3,2.3h-1c-1.3,0-2.3-1-2.3-2.3v-37.3c0-1.3,1-2.3,2.3-2.3h1
	C660.9,716.6,661.9,717.6,661.9,718.9z"/>
<path class="st1" d="M661.8,775.3V813c0,1.3-1,2.3-2.3,2.3h-0.7c-1.3,0-2.3-1-2.3-2.3v-37.6c0-1.3,1-2.3,2.3-2.3h0.7
	C660.8,773,661.8,774.1,661.8,775.3z"/>
<path class="st1" d="M658.9,632.1v524.4c0,21.5-17.5,39-39,39H401.5c-21.5,0-39-17.5-39-39V632.1c0-21.5,17.5-39,39-39h218.4
	C641.5,593.1,658.9,610.6,658.9,632.1z"/>
<path class="st2" d="M404.3,608.8c-13,0-23.5,10.6-23.5,23.6v523.9c0,13,10.5,23.5,23.5,23.5H617c13,0,23.5-10.5,23.5-23.5v-524l0,0
	c0-13-10.5-23.5-23.5-23.5h-31.8v4.1l0,0c0,10.7-8.7,19.4-19.4,19.4H457.7l0,0c-10.7,0-19.4-8.7-19.4-19.4v-4.1L404.3,608.8
	L404.3,608.8z"/>
<path class="st3" d="M539.3,615v0.7c0,2.1-1.7,3.9-3.9,3.9h-33.6c-2.1,0-3.9-1.7-3.9-3.9V615c0-2.1,1.7-3.9,3.9-3.9h33.6
	C537.6,611.1,539.3,612.8,539.3,615z"/>
<circle class="st3" cx="486.9" cy="615.3" r="4.8"/>
<path class="st2" d="M274.4,573.1c6.2-2.5,13.1-3.3,19.7-2.2c0,0-0.2,0.8-3.2,1.2s-13.5,2.4-13.5,2.4l7,3.1
	c16.7-5.3,25.7-0.4,25.7-0.4c-8.5-1.1-22.8,2-22.8,2l9.7,5.8c18.1-5.1,26.3,1.9,26.3,1.9c-7.1-2.5-23.9-0.2-23.9-0.2l9,7.3
	c16-3.6,22.8,4.3,22.8,4.3c-7.7-3.4-20.5-2.4-20.5-2.4c1.7,0.5,8.3,9.5,8.3,9.5c12.8,0.7,14,9.1,14,9.1c-4.5-4.9-12.1-6.3-12.1-6.3
	c6.5,9,6.8,21.1,6.8,21.1c-0.8-8.1-8.7-20-8.7-20c-2,0.1-4.3,18-4.3,18c-3.9-7,2.4-20.2,2.4-20.2c-1.2-2.9-9.1-9.9-9.1-9.9
	c-4.8,2-5.5,28.9-5.5,28.9c-5.6-12.5,3.6-30.6,3.6-30.6l-9.1-7.1c-7,9-5.3,32.1-5.3,32.1c-6.6-15.1,3.1-33.5,3.1-33.5l-10-5.8
	c-7,7.5-4.7,29.5-4.7,29.5c-6.3-13,2-30.8,2-30.8s-6.8-3.5-7.4-3.6c-2.7-0.4-3.2,18-3.2,18c-3.9-8.5,1-18.8,1-18.8l-14.2-6.1
	c-0.3,2.2,6.5,10.6,6.5,10.6c9.2,38.7,32.9,48.5,32.9,48.5l0,0c3.1,2.7,7.1,4.3,11.2,4.6c3.1,0.2,6.1,0.1,9.2-0.4
	c8.5-1.5,8.6,2.9,8.6,2.9c9.5-4.7,7.5-15.2,7.5-15.2c9.9-59-74.3-53.9-74.3-53.9C259.7,567.6,274.4,573.1,274.4,573.1z"/>
<path class="st2" d="M352.9,543.4c2.8-1.2,5.9-1.5,8.9-1c0,0-0.1,0.4-1.5,0.5s-6.1,1.1-6.1,1.1l3.2,1.4c7.5-2.4,11.6-0.2,11.6-0.2
	c-3.9-0.5-10.3,0.9-10.3,0.9l4.4,2.6c8.2-2.3,11.9,0.9,11.9,0.9c-3.2-1.1-10.8-0.1-10.8-0.1l4,3.3c7.2-1.6,10.3,1.9,10.3,1.9
	c-3.5-1.6-9.3-1.1-9.3-1.1c0.7,0.3,3.7,4.3,3.7,4.3c5.8,0.3,6.3,4.1,6.3,4.1c-1.5-1.5-3.4-2.4-5.5-2.8c1.8,2.9,2.9,6.1,3.1,9.5
	c-0.4-3.6-3.9-9-3.9-9c-0.9,0-2,8.1-2,8.1c-1.8-3.1,1.1-9.1,1.1-9.1c-0.5-1.3-4.1-4.5-4.1-4.5c-2.2,0.9-2.5,13.1-2.5,13.1
	c-2.5-5.6,1.6-13.9,1.6-13.9l-4.1-3.2c-3.1,4.1-2.4,14.5-2.4,14.5c-3-6.8,1.4-15.1,1.4-15.1l-4.5-2.7c-3.2,3.4-2.1,13.4-2.1,13.4
	c-2.9-5.9,0.9-13.9,0.9-13.9s-3.1-1.6-3.3-1.6c-1.2-0.2-1.4,8.1-1.4,8.1c-1.7-3.8,0.5-8.5,0.5-8.5l-6.4-2.7c-0.1,1,3,4.8,3,4.8
	c4.2,17.5,14.9,21.9,14.9,21.9l0,0c1.4,1.2,3.2,2,5,2.1c1.4,0.1,2.8,0,4.1-0.2c3.8-0.7,3.9,1.3,3.9,1.3c4.3-2.1,3.4-6.8,3.4-6.8
	c4.4-26.7-33.6-24.4-33.6-24.4C346.2,540.9,352.9,543.4,352.9,543.4z"/>
<ellipse class="st0" cx="145.9" cy="1213.3" rx="26.9" ry="4.5"/>
<ellipse class="st0" cx="919" cy="1250.6" rx="26.9" ry="4.5"/>
<ellipse class="st0" cx="814.9" cy="1275" rx="26.9" ry="4.5"/>
<ellipse class="st2" cx="204.9" cy="1262" rx="40.2" ry="6.8"/>
<path class="st2" d="M197.3,1257.2H212c0.1-0.3,0.2-0.6,0.4-0.8c1.2-1.9,2.9-3.5,4.8-4.6c2.4-1.6,5-3.1,6.8-5.4s2.3-5.9,0.3-8
	c-1.6-1.7-4.2-2-6.5-1.9c-1.4,0-2.8,0.3-4,0.9c-2,1.2-2.6,3.9-2.6,6.2c0,2.3,0.4,4.7-0.1,7c0-6.4-1.5-13.4-6.7-17.1
	c-1.6-1.2-4.1-1.8-5.5-0.3c-0.5,0.6-0.8,1.3-0.9,2c-0.7,3.6,0.5,7.3,3.3,9.8c-2.6,0.4-4.9-1.6-6.9-3.3s-4.6-3.4-7.1-2.5
	c-2.2,0.9-3.2,3.6-2.7,5.9c0.7,2.3,2,4.3,3.8,5.8C191,1253.4,194.1,1255.5,197.3,1257.2z"/>
<path class="st2" d="M806,1187.5c9.9,0.3,22,20.4,22,20.4c2.7-6.8-4-16-12-26.8s-2.5-18-2.5-18
	C802.6,1175.3,796.1,1187.3,806,1187.5z"/>
<path class="st4" d="M806,1187.6c9.9,0.3,22,20.4,22,20.4c0.1-0.3,0.2-0.6,0.3-0.9c-2.5-3.9-12.8-19.3-21.4-19.5
	c-9.3-0.3-4.1-10.8,5.5-22.1c0.3-0.8,0.6-1.6,1.1-2.3C802.6,1175.3,796.1,1187.3,806,1187.6z"/>
<path class="st5" d="M803.8,1171c0.4,0,0.7-1.2,0.7,1.3s-0.3,4.6-0.6,4.6s-0.6-2-0.6-4.6C803.3,1169.8,803.5,1171,803.8,1171z"/>
<path class="st5" d="M798.8,1174.3c0.2-0.3-0.7-1.2,1.5,0s3.9,2.4,3.7,2.8c-0.2,0.3-2.1-0.4-4.3-1.6
	C797.5,1174.2,798.7,1174.6,798.8,1174.3z"/>
<path class="st2" d="M849.9,1187.5c-9.9,0.3-22,20.4-22,20.4c-2.6-6.8,4-16,12-26.8s2.5-18,2.5-18
	C853.3,1175.3,859.8,1187.3,849.9,1187.5z"/>
<path class="st4" d="M850,1187.6c-9.9,0.3-22,20.4-22,20.4c-0.1-0.3-0.2-0.6-0.3-0.9c2.5-3.9,12.8-19.3,21.4-19.5
	c9.2-0.3,4.1-10.8-5.5-22.1c-0.3-0.8-0.6-1.6-1.1-2.3C853.3,1175.3,859.9,1187.3,850,1187.6z"/>
<path class="st5" d="M852.1,1171c-0.3,0-0.7-1.2-0.7,1.3s0.3,4.6,0.6,4.6s0.6-2,0.6-4.6C852.7,1169.8,852.5,1171,852.1,1171z"/>
<path class="st5" d="M857.1,1174.3c-0.2-0.3,0.7-1.2-1.5,0s-3.9,2.4-3.7,2.8c0.2,0.3,2.1-0.4,4.3-1.6
	C858.4,1174.2,857.3,1174.6,857.1,1174.3z"/>
<path class="st6" d="M845.3,1222.3c-4.6,2.8-27.6,5.7-44.9,5.5c-17.3-0.1,4.6-21.1,5.8-26.4c1.1-5.3,20.1-1.3,24.8,2s20,3.8,20,3.8
	S850,1219.5,845.3,1222.3z"/>
<path class="st7" d="M793.8,1223.3c-0.1,2.6,1.6,4.5,6.6,4.5c17.3,0.1,40.3-2.7,44.9-5.5c4.6-2.8,5.6-15.2,5.6-15.2h-0.5
	c-0.5,3.5-1.9,11.2-5.4,13.4c-4.6,2.8-27.6,5.7-44.9,5.5C796.4,1225.9,794.5,1224.9,793.8,1223.3z"/>
<linearGradient id="SVGID_1_" gradientUnits="userSpaceOnUse" x1="-24.12" y1="917.4625" x2="-24.12" y2="917.7225" gradientTransform="matrix(-1 0 0 -1 703.23 1802.3555)">
	<stop  offset="0" style="stop-color:#808080;stop-opacity:0.25"/>
	<stop  offset="0.54" style="stop-color:#808080;stop-opacity:0.12"/>
	<stop  offset="1" style="stop-color:#808080;stop-opacity:0.1"/>
</linearGradient>
<path class="st8" d="M726.8,884.8c0.4,0.2,0.8,0.1,1.1-0.1C727.5,884.7,727.2,884.8,726.8,884.8z"/>
<linearGradient id="SVGID_2_" gradientUnits="userSpaceOnUse" x1="-39.6459" y1="779.8924" x2="-39.6459" y2="1176.5029" gradientTransform="matrix(-1 0 0 -1 703.23 1802.3555)">
	<stop  offset="0" style="stop-color:#808080;stop-opacity:0.25"/>
	<stop  offset="0.54" style="stop-color:#808080;stop-opacity:0.12"/>
	<stop  offset="1" style="stop-color:#808080;stop-opacity:0.1"/>
</linearGradient>
<path class="st9" d="M593.6,699.4c0,0,9.5,12.8,33.9,28.5c15.9,10.2,17,22.4,15.9,29.8c-0.5,3.1-1.9,6-4,8.3
	c-6.8,8,2.1,27.2,2.1,27.2l2.4,28.1l-0.5-0.1l0.1,0.9c0,0,2.8,0.4,7.1,1.4c0,0.2,0,0.3,0,0.7s0,0.8,0,1.1
	c-0.3,21.7-6.1,52.2-6.1,52.2l0.3,0.1c-0.2,0.9-0.3,1.3-0.3,1.3c0.5,0.3,1,0.5,1.5,0.7c-3.9,10.6-10.5,27.4-15.5,37.6
	c-6,12.1-15,40.8-20.8,60.2c-5.7,19.2,14.4,36.1,32.7,27.3c0.7-0.3,1.4-0.7,2.1-1l1.8-2.3l24.1-30.1c0,0,0,0.2,0,0.5
	c0.2,5,1.9,44.9,15.4,48.6c14.5,3.9,31.9,4.9,39.9-21.6c8-26.5,22.4-84.5,37.4-87.9l-2.8-2.2l0.9-0.7c6.2-5,19-15,28.5-20.5
	c0.8-0.4,1.5-0.9,2.2-1.2c24.2-3.1,16.6-13.1,16.6-13.1s-50.9-3.4-59.3-3s-18.5,4.4-17.5,11.8c0.5,3.4,4.3,4.6,8.4,4.9l0.2,1
	l0.4,2.2c-4.7-0.3-10-0.6-15.3-0.9c0.1-2.6,0.1-5.3,0-7.6l0,0c0.5,0,0.1-0.3,0-0.3c0-0.4-0.1-0.8-0.1-1.2c0.3,0,0.6,0,0.8,0l0,0l0,0
	c0.2,0.1,0.4,0.1,0.7,0.1c0.3,0.1,0.6,0,0.9-0.2c-0.2,0.1-0.4,0.1-0.7,0.1c0.1,0,0.1-0.1,0.2-0.1c-0.2,0.1-0.4,0.1-0.6,0.1
	c-1.6-1-4-8.6,1.1-50.7c3.8-31.4,15.4-39.3,26.1-39.5c2.3,0,4.7,0.4,6.9,1l-0.7-0.3c6.3,1.5,11.5,4.7,13.6,5.9
	c6,3.4,27.4,18.7,27.4,18.7l60.3,34.4c-0.2-0.7-0.1-1.5,0.4-2.2c0.4,0.4,0.8,0.7,1.2,1.1c9.2,9,22.4,30,22.4,30
	c16.9-19.7-1.8-35.4-9.7-40.7c-0.4-0.3-0.8-0.5-1.1-0.7c0.8-0.5,1.4-0.8,1.4-0.8s-91.7-50.1-105.2-75.6c-3-5.4-6.8-10.2-11.4-14.2
	c0.8-0.2,1.5-0.5,2.2-0.7c-0.4-0.2-0.7-0.4-1.1-0.6c0.4-0.1,0.7-0.3,1.1-0.4c-4-1.9-6.8-6.6-6.9-11.5c0-0.7,0.1-1.3,0.2-2
	c1.5-7.8,9.3-13.4,9-21.3c0-0.5,0-1,0-1.5c-0.3-2.5-1.3-4.9-2.3-7.2c-1.8-4.4-3.1-8.9-3.9-13.6c-0.3-1.7-0.5-3.4-0.5-5.1
	c0-1.6,0.3-3.2,0.8-4.8c1.1-3.1,3.2-5.6,5-8.2c2.4-3.6,4.4-7.5,5.7-11.7c0.4-1.1,0.6-2.3,0.6-3.5c0.1-0.4,0.1-0.9,0-1.3
	c-0.4-1.6-1.3-2.9-2.5-4c-4.5-4.6-9.2-9.4-15.2-10.7c-2.8-0.5-5.7-0.6-8.6-0.3c-5,0.2-10-0.1-14.9-0.6c-4.1-0.4-11-0.4-14.5-3
	c-3.2-2.4-5-5.5-9-7s-8.3-2-12.6-1.4c-7.9,0.9-15.4,4.2-23.2,6c-1.9,0.6-4,0.7-6,0.2c-3-0.9-5.5-4-8.6-3.9c-1.9,0.1-3.6,1.3-5.2,2.6
	c-2.6,1.9-5,4-7.2,6.3c-5.3,5.7-8.7,13.5-13.6,19.7c-4.9,6.2-12.6,11.1-19.5,8.2c0.1,0.4,0.2,0.7,0.3,1.1l-0.3-0.1
	c1.6,6,4.3,11.6,8.1,16.5c-3.6,1.3-6.6,2.3-8.7,2.9C593.1,690.1,593.6,699.4,593.6,699.4z M635.1,691.8l1.1-0.8
	c2.2,0.6,4.4,1,6.6,1.1c4.5,0.3,9.2-0.2,13.7,0v13C649,701.5,641.8,697,635.1,691.8z M718.3,924.1c0.1-0.3,1-4.8,2.1-11.2
	c1.8-1.3,3.6-2.6,5.4-3.9C722.9,913.8,720.4,918.8,718.3,924.1z"/>
<path class="st10" d="M743.8,902.7c-2.7,0.8-5.3,2-7.7,3.5c-9.3,5.4-21.9,15.5-27.9,20.4c-2.2,1.8-3.5,2.9-3.5,2.9l-14.6-10.3
	l-1.5-8.2l-0.8-4.5l-1.1-5.9L743.8,902.7z"/>
<path class="st4" d="M743.8,902.7c-2.7,0.8-5.3,2-7.7,3.5c-1.4,0.1-2.9,0.3-4.5,0.4l-34.2-0.5c-3.2,0.5-6.4,0.7-9.7,0.5l-1.1-5.9
	L743.8,902.7z"/>
<path class="st11" d="M731.6,905.6c31.7-2,22.9-13.7,22.9-13.7s-49.8-3.4-58.1-2.9s-18.1,4.4-17.1,11.7s18.1,4.4,18.1,4.4
	L731.6,905.6z"/>
<path class="st4" d="M743.8,902.7c-2.7,0.8-5.3,2-7.7,3.5c-9.3,5.4-21.9,15.5-27.9,20.4c-2.2,1.8-3.5,2.9-3.5,2.9l-14.6-10.3
	l-1.5-8.2l-0.8-4.5l-1.1-5.9L743.8,902.7z"/>
<path class="st4" d="M743.8,902.7c-2.7,0.8-5.3,2-7.7,3.5c-1.4,0.1-2.9,0.3-4.5,0.4l-34.2-0.5c-3.2,0.5-6.4,0.7-9.7,0.5l-1.1-5.9
	L743.8,902.7z"/>
<path class="st4" d="M731.6,905.6c31.7-2,22.9-13.7,22.9-13.7s-49.8-3.4-58.1-2.9s-18.1,4.4-17.1,11.7s18.1,4.4,18.1,4.4
	L731.6,905.6z"/>
<rect x="660.1" y="664.6" class="st11" width="89.3" height="105.9"/>
<rect x="660.1" y="665" class="st4" width="89.3" height="105.9"/>
<path class="st10" d="M868.7,837c0,0,1.3,0.7,3.2,2c7.8,5.3,26,20.8,9.5,40.5c0,0-12.9-20.9-21.9-29.8c-2.1-2.1-4-3.5-5.4-3.9
	L868.7,837z"/>
<path class="st10" d="M713.5,704.8c-5.4,25.9,21.5,34.6,21.5,34.6L687.7,757c0,0-34.6-13.7-19.5-21s19.5-38.1,19.5-38.1L713.5,704.8
	z"/>
<path class="st10" d="M795.5,884.9c-2.7,0.8-5.3,2-7.7,3.5c-9.3,5.4-21.9,15.5-27.9,20.4c-2.2,1.8-3.5,2.9-3.5,2.9l-14.6-10.2
	l-1.5-8.2l-0.9-4.5l-1.1-5.8L795.5,884.9z"/>
<path class="st4" d="M795.5,884.8c-2.7,0.8-5.3,2-7.7,3.5c-1.4,0.1-2.9,0.3-4.5,0.4l-34.2-0.5c-3.2,0.5-6.4,0.7-9.7,0.5l-1.1-5.8
	L795.5,884.8z"/>
<path class="st11" d="M783.3,887.8c31.7-2,22.9-13.7,22.9-13.7s-49.8-3.4-58.1-2.9s-18,4.4-17.1,11.7c1,7.3,18,4.4,18,4.4
	L783.3,887.8z"/>
<path class="st4" d="M740.6,892.9l19.4,15.9c-2.2,1.8-3.5,2.9-3.5,2.9l-14.6-10.2l-1.5-8.2L740.6,892.9z"/>
<path class="st11" d="M611.7,977.9c5.7-19.3,14.5-47.8,20.4-59.8c7.5-15.5,18.5-46.9,18.5-46.9h71.3c8.2,8.2-1.8,54.6-2,55.6
	c5.9-16.1,20.2-32.9,20.2-32.9l21.7,17.8c-14.6,3.4-28.8,61-36.6,87.4c-7.8,26.3-24.8,25.4-39,21.5c-13.3-3.7-15-43.3-15.1-48.3
	c0-0.3,0-0.5,0-0.5l-23.6,29.9l-1.8,2.3c-0.7,0.3-1.3,0.7-2,1C625.8,1013.8,606.1,996.9,611.7,977.9z"/>
<path class="st4" d="M651.6,828.1c0.1-6.7-0.3-12.6-1.6-16.4l62.7,36.4l11.7,29.8l0.4,4.4c0,0,0.5,0.3,0.1,0.3l-4.3,0.3
	c-15.7,1.1-64,3.7-75-2.8C645.7,880,651.3,849.6,651.6,828.1z"/>
<path class="st12" d="M651.6,826.6c0.1-6.7-0.3-12.6-1.6-16.4l62.7,36.4l8.3,33.2l3.9,1l0.8,0.2H725l-4.3,0.3
	c-15.7,1.1-64,3.7-75-2.8C645.7,878.5,651.3,848.2,651.6,826.6z"/>
<path class="st4" d="M650.1,810.2l62.7,36.4l8.3,33.2l3.9,1c0,0.1,0,0.2,0.1,0.3l-4.3,0.3c-4.2-2.5-10.3-8.4-17.5-22.3
	c-10.8-20.8-38.8-29.5-51.6-32.4C651.8,819.9,651.3,814,650.1,810.2z"/>
<path class="st4" d="M871.8,839c-3.5,2.1-11.1,7.1-12.4,10.6c-2.1-2.1-4-3.5-5.4-3.9l14.6-8.8C868.7,837,870,837.8,871.8,839z"/>
<path class="st4" d="M728.6,881.4c-0.3,0.3-0.7,0.3-1,0.1C728,881.6,728.3,881.5,728.6,881.4z"/>
<path class="st13" d="M681.3,719.4c-18.6,0.5-42-18.5-42-18.5l47-33.2l-2-8.3c0,0-59.5,23.9-74.2,28.3
	c-14.6,4.4-14.2,13.7-14.2,13.7s9.3,12.7,33.2,28.3c15.5,10.1,16.7,22.3,15.5,29.6c-0.5,3.1-1.9,5.9-3.9,8.3c-6.7,7.9,2,27,2,27
	l2.4,28.8c0,0,43.9,6.3,58.1,33.7c14.2,27.3,23.9,23.9,23.9,23.9s-6.8,6.8,0-50.3s39.1-36.1,44.9-32.7c5.8,3.4,26.8,18.5,26.8,18.5
	l59,34.2c-1.5-4.4,14.1-13.2,14.1-13.2s-89.8-49.8-103-75.1c-13.2-25.4-52.2-36.6-52.2-36.6c-9.3,9.8-22.5,8.3-22.5,8.3
	C677.9,733.6,681.3,719.4,681.3,719.4z"/>
<path class="st4" d="M685.4,711.4c6.9,8.8,18.3,12.7,29.1,9.8c-1.5-4.8-1.7-10-0.6-14.9l-25.9-6.8
	C687.5,703.5,686.6,707.4,685.4,711.4L685.4,711.4z"/>
<ellipse class="st10" cx="707" cy="692.9" rx="27.8" ry="27.8"/>
<path class="st4" d="M704.5,631c3.9,1.5,5.7,4.6,8.8,7c3.4,2.6,10.2,2.5,14.2,3c4.9,0.6,9.7,0.8,14.6,0.6c2.8-0.3,5.6-0.1,8.4,0.3
	c5.8,1.3,10.5,6.1,14.8,10.6c1.2,1.1,2.1,2.4,2.5,4c0.1,1.3-0.1,2.6-0.5,3.8c-1.3,4.1-3.2,8-5.6,11.5c-1.8,2.6-3.9,5.1-4.9,8.2
	c-1.1,3.4-0.8,7.2-0.2,10.8c0.8,4.6,2,9.1,3.8,13.5c1.1,2.3,1.8,4.7,2.2,7.1c0.7,8.1-7.3,13.8-8.8,21.7c-1.1,5.7,1.8,12.1,6.6,14.3
	c-3.7,1.5-7.8,2-11.7,1.4c-3.4-0.5-7.2-2.5-7.8-6.3c-0.2-1.5,0.1-3.2-0.2-4.7c-0.5-2.2-2.2-3.8-3.8-5.2c-4-3.7-7.9-8.6-8.3-14.5
	c0-1.8,0-3.6-0.2-5.5c-0.8-4.3-4.7-7.6-4.6-12c0-2.8,1.7-5.2,2.4-7.8c1.3-4.9-0.7-10.3-3.9-14s-7.4-5.9-11.5-8
	c-2.5-1.3-5.1-2.6-7.9-2.2c-2.8,0.4-5.1,2.6-7.1,4.9c-6,7-10.2,15.6-15.5,23.3c-2.3,3.3-5.2,6.6-8.8,6.6c-1.7-0.2-3.4-0.6-4.9-1.2
	c-6.3-1.9-13-0.6-19.5-1c-16.4-1.1-31.5-14.8-36.1-32.8c6.8,2.8,14.3-2,19.1-8.2s8-13.9,13.3-19.5c2.2-2.3,4.5-4.3,7-6.2
	c1.5-1.2,3.2-2.6,5.1-2.6c3.1-0.1,5.5,3,8.4,3.9c1.9,0.4,4,0.4,5.9-0.2c7.6-1.8,14.9-5.1,22.6-6C696.3,629,700.5,629.5,704.5,631z"
	/>
<path class="st4" d="M665.5,958.3c-4.9-9.8,11.2-41.5,11.2-41.5"/>
<path class="st4" d="M642,986.6c0.3-2,16.1-13.7,25.9-20.8c4.5-3.3,3.1,6.4,3.1,6.4c0-0.3,0-0.5,0-0.5l-23.6,29.9
	C645.2,996.7,641.7,988.7,642,986.6z"/>
<g class="st14">
	<path d="M675.3,719.1c-0.3,3.4,0.1,11.1,10,12.8c-6.4-4.1-4.4-12.4-4.4-12.4C679,719.5,677.1,719.3,675.3,719.1z"/>
	<path d="M871.6,837.5c0,0-89.8-49.8-103-75.1c-11.2-21.5-40.9-32.8-49.7-35.8c12.1,4.7,34.9,15.6,44.3,33.9
		c13.2,25.4,103,75.1,103,75.1L871.6,837.5z"/>
	<path d="M638.9,700.9l46.9-33.2l-2-8.3l-4.5,1.8l1.1,4.5L633.5,699c0,0,14.6,11.9,29.9,16.6C654.6,711.7,646.4,706.8,638.9,700.9z"
		/>
	<path d="M644.6,822.4l0.1,0.9c6.2,1,12.4,2.6,18.4,4.6C657.1,825.7,650.9,823.8,644.6,822.4z"/>
	<path d="M725.7,881.1c-1.6-0.9-4-8.2,1-50.4c4.6-38.7,20.9-41.5,32.8-38.3c-11.6-5.2-32.8-8.7-38.1,36.3c-5,42.2-2.6,49.5-1,50.4
		c0.3,0,0.7,0,1-0.1c-0.3,0.3-0.7,0.3-1,0.1H720C721.6,880.3,723.6,881,725.7,881.1z"/>
	<path d="M726.7,881c-0.3,0.1-0.7,0.1-1,0.1C726,881.3,726.4,881.2,726.7,881z"/>
</g>
<path class="st11" d="M704.5,630c3.9,1.5,5.7,4.6,8.8,7c3.4,2.6,10.2,2.5,14.2,3c4.9,0.6,9.7,0.8,14.6,0.6c2.8-0.2,5.6-0.1,8.4,0.3
	c5.8,1.3,10.5,6.1,14.8,10.6c1.2,1,2,2.4,2.5,3.9c0.1,1.3-0.1,2.6-0.5,3.8c-1.3,4.1-3.2,8-5.6,11.5c-1.8,2.6-3.9,5.1-4.9,8.2
	c-1.1,3.4-0.8,7.2-0.2,10.8c0.8,4.6,2,9.2,3.8,13.5c1.1,2.3,1.8,4.7,2.2,7.1c0.7,8.1-7.3,13.8-8.8,21.7c-1.1,5.7,1.8,12.1,6.6,14.3
	c-3.7,1.5-7.8,2-11.7,1.4c-3.4-0.5-7.2-2.5-7.8-6.3c-0.2-1.5,0.1-3.2-0.2-4.7c-0.5-2.2-2.2-3.8-3.8-5.2c-4-3.7-7.9-8.6-8.3-14.5
	c0-1.8,0-3.6-0.2-5.5c-0.8-4.3-4.7-7.6-4.6-12c0-2.8,1.7-5.2,2.4-7.8c1.3-4.9-0.7-10.3-3.9-14s-7.4-5.9-11.5-8
	c-2.5-1.3-5.1-2.6-7.9-2.2s-5.1,2.6-7.1,4.9c-6,7-10.2,15.6-15.5,23.3c-2.3,3.3-5.2,6.6-8.8,6.6c-1.7-0.2-3.4-0.6-4.9-1.2
	c-6.3-1.9-13-0.5-19.5-1c-16.4-1.1-31.5-14.8-36.1-32.8c6.8,2.8,14.3-2,19.1-8.2s8-13.8,13.3-19.5c2.2-2.3,4.5-4.3,7-6.2
	c1.5-1.2,3.2-2.5,5.1-2.6c3.1-0.1,5.5,3,8.4,3.9c1.9,0.4,4,0.4,5.9-0.2c7.6-1.8,14.9-5.1,22.6-6C696.3,628.1,700.5,628.6,704.5,630z
	"/>
<circle class="st15" cx="511.5" cy="901.7" r="56.1"/>
<path class="st16" d="M585.1,894.3c0,41.4-33.6,74.9-74.9,74.9s-74.9-33.6-74.9-74.9c0-41.3,33.6-74.9,74.9-74.9
	S585.1,852.9,585.1,894.3L585.1,894.3z M501.5,934l55.6-55.6c1.9-1.9,1.9-4.9,0-6.8l0,0l-6.8-6.8c-1.9-1.9-4.9-1.9-6.8,0l0,0
	l-45.3,45.3L477,888.9c-1.9-1.9-4.9-1.9-6.8,0l-6.8,6.9c-1.9,1.9-1.9,4.9,0,6.8l31.4,31.4C496.6,935.9,499.6,935.9,501.5,934
	L501.5,934L501.5,934z"/>
</svg>
